# xmcd
#
# Track frame offsets: 
#        150
#        19502
#        43834
#        61513
#        95169
#        121706
#        143697
#        180744
#
# Disc length: 2723 seconds
#
# Revision: 2
# Processed by: cddbd v1.5.2PL0 Copyright (c) Steve Scherf et al.
# Submitted via: ExactAudioCopy v0.99pb3
#
DISCID=600aa108
DTITLE=Anca Parghel - Muzica de Colectie - Vol. 79
DYEAR=2009
DGENRE=Blues
TTITLE0=I'll be on your side
TTITLE1=Midnight prayer
TTITLE2=Donna Lee
TTITLE3=Let it be
TTITLE4=Prisoners of this world
TTITLE5=Forgive me
TTITLE6=Summertime
TTITLE7=Bitter wife blues
EXTD=
EXTT0=
EXTT1=
EXTT2=
EXTT3=
EXTT4=
EXTT5=
EXTT6=
EXTT7=
PLAYORDER=
